<?xml version="1.0" encoding="utf-8"?>
<!-- Generator: Adobe Illustrator 19.2.1, SVG Export Plug-In . SVG Version: 6.00 Build 0)  -->
<svg version="1.1"
	 id="svg2" inkscape:version="0.48.5 r10040" sodipodi:docname="email.svg" xmlns:cc="http://creativecommons.org/ns#" xmlns:dc="http://purl.org/dc/elements/1.1/" xmlns:inkscape="http://www.inkscape.org/namespaces/inkscape" xmlns:rdf="http://www.w3.org/1999/02/22-rdf-syntax-ns#" xmlns:sodipodi="http://sodipodi.sourceforge.net/DTD/sodipodi-0.dtd" xmlns:svg="http://www.w3.org/2000/svg"
	 xmlns="http://www.w3.org/2000/svg" xmlns:xlink="http://www.w3.org/1999/xlink" x="0px" y="0px" width="100%" height="100%"
	 viewBox="0 0 15 15" enable-background="new 0 0 15 15" xml:space="preserve">
<g enable-background="new">
	<path class="svg" d="M13.2,11.5h1.6c-0.5,1.1-1.3,1.9-2.3,2.5c-1.2,0.7-2.7,1-4.4,1c-1.7,0-3.1-0.3-4.3-0.9
		c-1.2-0.6-2.1-1.4-2.7-2.6c-0.6-1.1-0.9-2.4-0.9-3.7c0-1.5,0.3-2.8,1-4.1c0.7-1.3,1.6-2.2,2.8-2.8S6.5,0,8,0c1.3,0,2.4,0.3,3.4,0.8
		c1,0.5,1.8,1.2,2.3,2.2c0.5,0.9,0.8,2,0.8,3.1c0,1.3-0.4,2.5-1.2,3.6c-1,1.4-2.3,2-3.8,2c-0.4,0-0.7-0.1-0.9-0.2
		C8.2,11.3,8.1,11,8,10.7c-0.6,0.6-1.3,0.9-2.1,0.9c-0.8,0-1.5-0.3-2.1-0.9C3.3,10.1,3,9.4,3,8.4C3,7.1,3.4,6,4,5
		c0.8-1.2,1.8-1.8,3.1-1.8c0.9,0,1.6,0.4,2,1.1l0.2-0.9h2L10.2,9c-0.1,0.4-0.1,0.6-0.1,0.7c0,0.1,0,0.2,0.1,0.3
		c0.1,0.1,0.1,0.1,0.2,0.1c0.2,0,0.6-0.2,0.9-0.5c0.5-0.4,0.9-0.9,1.3-1.6c0.3-0.7,0.5-1.4,0.5-2.1c0-1.3-0.5-2.3-1.4-3.2
		c-0.9-0.9-2.2-1.3-3.8-1.3c-1.4,0-2.5,0.3-3.5,0.9c-1,0.6-1.7,1.4-2.2,2.4C1.8,5.8,1.6,6.9,1.6,8c0,1.1,0.3,2.1,0.8,3
		c0.5,0.9,1.3,1.6,2.3,2c1,0.4,2.1,0.6,3.3,0.6c1.2,0,2.3-0.2,3.1-0.5C12,12.7,12.7,12.2,13.2,11.5z M5,8.3c0,0.7,0.1,1.1,0.4,1.5
		c0.3,0.3,0.6,0.5,1,0.5c0.3,0,0.6-0.1,0.8-0.2c0.2-0.1,0.4-0.3,0.6-0.5C8,9.2,8.2,8.7,8.4,8.1c0.2-0.6,0.3-1.2,0.3-1.7
		c0-0.6-0.1-1-0.4-1.4c-0.3-0.3-0.6-0.5-1-0.5c-0.4,0-0.8,0.2-1.2,0.5C5.7,5.5,5.5,5.9,5.3,6.6C5.1,7.2,5,7.8,5,8.3z"/>
</g>
</svg>
