<?xml version="1.0" encoding="UTF-8" standalone="no"?>
<!-- Created with Inkscape (http://www.inkscape.org/) -->

<svg
   class="devopsrockstars"
   xmlns:dc="http://purl.org/dc/elements/1.1/"
   xmlns:cc="http://creativecommons.org/ns#"
   xmlns:rdf="http://www.w3.org/1999/02/22-rdf-syntax-ns#"
   xmlns:svg="http://www.w3.org/2000/svg"
   xmlns="http://www.w3.org/2000/svg"
   xmlns:sodipodi="http://sodipodi.sourceforge.net/DTD/sodipodi-0.dtd"
   xmlns:inkscape="http://www.inkscape.org/namespaces/inkscape"
   width="100%"
   height="100%"
   viewBox="0 0 359.57031 42.578125"
   id="svg3067"
   version="1.1"
   inkscape:version="0.48.5 r10040"
   sodipodi:docname="devopsrockstars-llc.svg">
   <style>
    .devopsrockstars:hover .path {
      fill: var(--hover-color);
      stroke: var(--hover-color);
      stroke-width: 2px;
    }
  </style>
  <defs
     id="defs3069" />
  <sodipodi:namedview
     id="base"
     pagecolor="#ffffff"
     bordercolor="#666666"
     borderopacity="1.0"
     inkscape:pageopacity="0.0"
     inkscape:pageshadow="2"
     inkscape:zoom="0.35"
     inkscape:cx="168.69977"
     inkscape:cy="-423.91963"
     inkscape:document-units="px"
     inkscape:current-layer="layer1"
     showgrid="false"
     fit-margin-top="0"
     fit-margin-left="0"
     fit-margin-right="0"
     fit-margin-bottom="0"
     inkscape:window-width="1003"
     inkscape:window-height="651"
     inkscape:window-x="20"
     inkscape:window-y="20"
     inkscape:window-maximized="0" />
  <metadata
     id="metadata3072">
    <rdf:RDF>
      <cc:Work
         rdf:about="">
        <dc:format>image/svg+xml</dc:format>
        <dc:type
           rdf:resource="http://purl.org/dc/dcmitype/StillImage" />
        <dc:title />
      </cc:Work>
    </rdf:RDF>
  </metadata>
  <g
     inkscape:label="Layer 1"
     inkscape:groupmode="layer"
     id="layer1"
     transform="translate(-206.30023,-60.05196)">
    <g

       transform="translate(145.71429,-302.85714)"
       style="font-size:40px;font-style:normal;font-weight:normal;line-height:125%;letter-spacing:0px;word-spacing:0px;fill:#ffffff;fill-opacity:1;stroke:none;font-family:Sans"
       id="flowRoot3083">
      <path
         class="path"
         d="m 60.585937,386.26847 c 0.208333,-3.02082 0.651041,-5.66404 1.328125,-7.92968 0.703123,-2.29165 1.536455,-4.20571 2.5,-5.74219 0.963537,-1.56248 2.018223,-2.74737 3.164063,-3.55469 1.171866,-0.80726 2.330719,-1.24997 3.476562,-1.32812 1.171863,-0.10414 2.278633,0.16929 3.320313,0.82031 1.067693,0.62503 1.992171,1.58857 2.773437,2.89062 0.859357,1.61461 1.393211,3.30732 1.601563,5.07813 0.208314,1.77085 0.14321,3.51564 -0.195313,5.23437 -0.338559,1.69272 -0.911475,3.32033 -1.71875,4.88282 -0.807307,1.53646 -1.783869,2.90365 -2.929687,4.10156 -1.145846,1.17188 -2.421886,2.1224 -3.828125,2.85156 -1.406259,0.70313 -2.877611,1.06771 -4.414063,1.09375 -0.963546,0 -1.770837,-0.29948 -2.421875,-0.89844 -0.651044,-0.59895 -1.171877,-1.32812 -1.5625,-2.1875 -0.390626,-0.88541 -0.677084,-1.79687 -0.859375,-2.73437 -0.15625,-0.96354 -0.234375,-1.82291 -0.234375,-2.57813 m 4.804688,-4.02343 c 0.07812,-0.83332 0.169265,-1.74478 0.273437,-2.73438 0.130203,-1.01561 0.364578,-1.94009 0.703125,-2.77344 0.364577,-0.85935 0.88541,-1.5755 1.5625,-2.14843 0.677075,-0.5729 1.601553,-0.85936 2.773438,-0.85938 0.546864,2e-5 0.96353,0.16929 1.25,0.50781 0.286446,0.33857 0.494779,0.72919 0.625,1.17188 0.130196,0.44273 0.1953,0.89846 0.195312,1.36719 0.02603,0.46876 0.03905,0.85939 0.03906,1.17187 -0.520846,0.10419 -0.950533,0.0391 -1.289063,-0.19531 -0.338552,-0.2604 -0.61199,-0.54686 -0.820312,-0.85938 -0.208344,-0.33852 -0.338552,-0.65102 -0.390625,-0.9375 -0.05209,-0.28643 -0.06511,-0.44268 -0.03906,-0.46875 -0.546884,0.0261 -0.989592,0.2995 -1.328125,0.82032 -0.364591,0.54689 -0.651049,1.18491 -0.859375,1.91406 -0.182299,0.72918 -0.312507,1.45835 -0.390625,2.1875 -0.07813,0.70314 -0.117195,1.25001 -0.117187,1.64062 -0.02605,0.39064 -0.05209,0.82033 -0.07813,1.28907 -7e-6,0.46876 0.0651,0.92449 0.195312,1.36718 0.130201,0.41668 0.351555,0.78126 0.664063,1.09375 0.338533,0.28647 0.820303,0.48178 1.445312,0.58594 0.963531,-0.28645 1.679677,-0.63801 2.148438,-1.05469 0.494779,-0.41665 0.885404,-0.83332 1.171875,-1.25 0.312487,-0.44269 0.611965,-0.87238 0.898437,-1.28906 0.312486,-0.41665 0.755194,-0.76821 1.328125,-1.05469 0.312485,-0.0521 0.520818,-0.026 0.625,0.0781 0.130193,0.0781 0.208318,0.1823 0.234375,0.3125 0.208317,-2.55207 0.169255,-4.66144 -0.117187,-6.32813 -0.260433,-1.69268 -0.69012,-3.00779 -1.289063,-3.94531 -0.57293,-0.93747 -1.276055,-1.52341 -2.109375,-1.75781 -0.833345,-0.26039 -1.70574,-0.19529 -2.617187,0.19531 -0.885426,0.36461 -1.770842,1.00263 -2.65625,1.91406 -0.885423,0.91148 -1.679693,2.0443 -2.382813,3.39844 -0.703129,1.35419 -1.276045,2.91668 -1.71875,4.6875 -0.442711,1.77085 -0.664065,3.68491 -0.664062,5.74219 -3e-6,0.65105 0.02604,1.32813 0.07813,2.03125 0.07812,0.70313 0.234372,1.34115 0.46875,1.91406 0.234372,0.57292 0.585934,1.05469 1.054687,1.44531 0.494787,0.39063 1.145828,0.58594 1.953125,0.58594 0.989577,0.0261 1.914055,-0.11718 2.773438,-0.42969 0.859365,-0.33853 1.653635,-0.79426 2.382812,-1.36718 0.729155,-0.59896 1.393217,-1.30208 1.992188,-2.10938 0.598944,-0.80728 1.119777,-1.66666 1.5625,-2.57812 -0.260431,0.28646 -0.585952,0.59896 -0.976563,0.9375 -0.364596,0.3125 -0.781263,0.61198 -1.25,0.89843 -0.44272,0.26043 -0.937511,0.48178 -1.484375,0.66407 -0.520844,0.15625 -1.067718,0.23438 -1.640625,0.23437 -0.885425,1e-5 -1.60157,-0.23437 -2.148437,-0.70312 -0.546882,-0.46875 -0.976569,-1.01562 -1.289063,-1.64063 -0.286464,-0.65103 -0.481776,-1.31509 -0.585937,-1.99219 -0.104172,-0.70311 -0.156255,-1.263 -0.15625,-1.67968"
         style="fill:#ffffff;font-family:Shadows Into Light;-inkscape-font-specification:Shadows Into Light"
         id="path3136" />
      <path
         class="path"
         d="m 103.78906,393.8466 c 0,-0.52083 0.32552,-1.18489 0.97657,-1.99219 0.65103,-0.83333 1.45832,-1.77083 2.42187,-2.8125 0.96353,-1.04166 2.01822,-2.17447 3.16406,-3.39844 1.14582,-1.22394 2.20051,-2.48696 3.16407,-3.78906 0.96352,-1.32811 1.77081,-2.66925 2.42187,-4.02344 0.65102,-1.38019 0.97654,-2.73435 0.97656,-4.0625 -2e-5,-0.7031 -0.19533,-1.30206 -0.58593,-1.79687 -0.39065,-0.52081 -0.89846,-0.96352 -1.52344,-1.32813 -0.59898,-0.36455 -1.28908,-0.65101 -2.07031,-0.85937 -0.75523,-0.20831 -1.52346,-0.36456 -2.30469,-0.46875 -0.78126,-0.13018 -1.52345,-0.20831 -2.22656,-0.23438 -0.70314,-0.052 -1.3021,-0.0781 -1.79688,-0.0781 -0.13022,3e-5 -0.29949,0.013 -0.50781,0.0391 -0.20834,3e-5 -0.4297,0.0131 -0.66406,0.0391 -0.20835,3e-5 -0.40366,0.0131 -0.58594,0.0391 -0.1823,0.0261 -0.28647,0.0391 -0.3125,0.0391 l -0.50781,0.46875 c -1e-5,0.0521 -0.013,0.27346 -0.0391,0.66406 0,0.39065 -0.013,0.83336 -0.0391,1.32813 -1e-5,0.49481 -1e-5,1.00262 0,1.52343 l 0,1.21094 c -1e-5,2.63023 0.0911,5.24741 0.27344,7.85156 0.20832,2.57814 0.31249,5.1823 0.3125,7.8125 -10e-6,0.15626 -10e-6,0.32553 0,0.50782 0.026,0.18229 0.026,0.36458 0,0.54687 -0.026,0.15626 -0.10418,0.29948 -0.23438,0.42969 -0.10417,0.10417 -0.27344,0.15625 -0.50781,0.15625 -0.15626,0 -0.31251,-0.0391 -0.46875,-0.11719 -0.15626,-0.0781 -0.2474,-0.20833 -0.27344,-0.39062 l -1.52343,-20.54688 c -0.0781,0.0521 -0.22136,0.13023 -0.42969,0.23438 -0.1823,0.0781 -0.37761,0.16929 -0.58594,0.27343 -0.20834,0.10419 -0.416669,0.22138 -0.625,0.35157 -0.182294,0.10419 -0.299481,0.15627 -0.351563,0.15625 -0.02604,2e-5 -0.07813,0.013 -0.15625,0.0391 -0.05208,2e-5 -0.09115,2e-5 -0.117187,0 -0.13021,2e-5 -0.28646,-0.026 -0.46875,-0.0781 -0.156251,-0.0781 -0.234376,-0.23435 -0.234375,-0.46875 -10e-7,-0.3906 0.07812,-0.7031 0.234375,-0.9375 0.18229,-0.26039 0.403644,-0.49476 0.664062,-0.70312 0.286457,-0.20831 0.585936,-0.41664 0.898438,-0.625 0.3125,-0.20831 0.59896,-0.46872 0.85938,-0.78125 0.28645,-0.33852 0.5078,-0.75518 0.66406,-1.25 0.18228,-0.49476 0.27343,-1.11976 0.27344,-1.875 0.52082,3e-5 0.84634,0.0912 0.97656,0.27344 0.1302,0.18232 0.20833,0.40367 0.23437,0.66406 0.026,0.2344 0.0521,0.4818 0.0781,0.74219 0.0521,0.2344 0.24739,0.40367 0.58594,0.50781 0.72915,-0.026 1.60155,-0.026 2.61718,0 1.04166,0.0261 2.12239,0.11721 3.24219,0.27344 1.14582,0.13023 2.26561,0.33857 3.35938,0.625 1.11977,0.28648 2.10935,0.69013 2.96875,1.21093 0.88539,0.52086 1.5755,1.18492 2.07031,1.99219 0.52081,0.78127 0.75518,1.74482 0.70312,2.89063 -0.33856,2.00522 -0.9896,3.93231 -1.95312,5.78125 -0.93752,1.84897 -2.05731,3.63282 -3.35938,5.35156 -1.27605,1.69272 -2.66928,3.32032 -4.17968,4.88281 -1.48439,1.5625 -2.96876,3.0599 -4.45313,4.49219 -0.026,0 -0.0651,0 -0.11719,0 -0.0521,0.026 -0.0912,0.0391 -0.11718,0.0391 -0.23439,0 -0.4297,-0.0781 -0.58594,-0.23437 -0.15626,-0.15625 -0.23438,-0.35156 -0.23438,-0.58594"
         style="fill:#ffffff;font-family:Shadows Into Light;-inkscape-font-specification:Shadows Into Light"
         id="path3138" />
      <path
         class="path"
         d="m 121.83594,386.19035 c -0.13021,0.026 -0.32553,0.0651 -0.58594,0.11719 -0.26042,0.0521 -0.53386,0.0651 -0.82031,0.0391 -0.28646,-0.026 -0.53386,-0.10416 -0.74219,-0.23438 -0.23437,-0.1302 -0.35156,-0.35155 -0.35156,-0.66406 0,-0.18228 0.0391,-0.31249 0.11719,-0.39062 0.0781,-0.0781 0.20833,-0.19531 0.39062,-0.35157 0.57292,-0.46874 1.05469,-1.06769 1.44531,-1.79687 0.41667,-0.7552 0.79427,-1.54947 1.13282,-2.38281 0.33853,-0.85936 0.6901,-1.70572 1.05468,-2.53907 0.39062,-0.85935 0.83333,-1.62758 1.32813,-2.30468 0.49478,-0.67707 1.10676,-1.22394 1.83594,-1.64063 0.72915,-0.41664 1.62759,-0.61196 2.69531,-0.58594 0.4427,3e-5 0.93749,0.10419 1.48437,0.3125 0.54687,0.20836 1.05468,0.49482 1.52344,0.85938 0.46874,0.33856 0.85936,0.75523 1.17187,1.25 0.31249,0.49481 0.46874,1.04168 0.46875,1.64062 0.1302,0.20835 -1e-5,0.50783 -0.39062,0.89844 -0.3646,0.39064 -0.87241,0.82033 -1.52344,1.28906 -0.65105,0.44273 -1.39324,0.91148 -2.22656,1.40625 -0.8073,0.46877 -1.58855,0.91148 -2.34375,1.32813 -0.75522,0.41668 -1.41928,0.78126 -1.99219,1.09375 -0.57292,0.31251 -0.95052,0.54689 -1.13281,0.70312 -0.13021,0.26043 -0.23438,0.55991 -0.3125,0.89844 -0.0781,0.33855 -0.14323,0.66407 -0.19531,0.97656 -0.026,0.28647 -0.0521,0.55991 -0.0781,0.82032 0,0.23438 0,0.41667 0,0.54687 0,0.4948 -0.026,1.04167 -0.0781,1.64063 -0.026,0.59896 -10e-6,1.17188 0.0781,1.71875 0.10416,0.52083 0.32552,0.96354 0.66407,1.32812 0.33853,0.33855 0.91145,0.50782 1.71875,0.50781 0.85936,1e-5 1.66665,-0.20833 2.42187,-0.625 0.7552,-0.4427 1.45832,-0.97655 2.10937,-1.60156 0.65103,-0.62499 1.23697,-1.30208 1.75782,-2.03125 0.54686,-0.72916 1.02863,-1.40624 1.44531,-2.03125 0.44269,-0.65103 0.83332,-1.18488 1.17187,-1.60156 0.33853,-0.41666 0.62499,-0.62499 0.85938,-0.625 0.2604,10e-6 0.53384,0.0521 0.82031,0.15625 0.31249,0.0781 0.46873,0.28647 0.46875,0.625 -2e-5,0.46876 -0.19533,1.02865 -0.58594,1.67969 -0.36459,0.65105 -0.85939,1.34115 -1.48437,2.07031 -0.59897,0.72917 -1.3021,1.45834 -2.10938,2.1875 -0.78126,0.70313 -1.57553,1.34115 -2.38281,1.91406 -0.8073,0.54688 -1.60157,1.00261 -2.38281,1.36719 -0.78126,0.33854 -1.47136,0.50781 -2.07031,0.50781 -1.17188,0 -2.0573,-0.28646 -2.65625,-0.85937 -0.59896,-0.57292 -1.02865,-1.28906 -1.28906,-2.14844 -0.23438,-0.85937 -0.36459,-1.77083 -0.39063,-2.73438 0,-0.98957 -0.013,-1.90103 -0.0391,-2.73437 m 7.1875,-10.54688 c -0.44272,2e-5 -0.91147,0.22138 -1.40625,0.66407 -0.4948,0.41668 -0.96355,0.93751 -1.40625,1.5625 -0.41668,0.59897 -0.76824,1.22397 -1.05469,1.875 -0.26042,0.62501 -0.39063,1.14584 -0.39062,1.5625 0.39061,10e-6 0.95051,-0.14322 1.67968,-0.42969 0.7552,-0.31249 1.49739,-0.69009 2.22656,-1.13281 0.72916,-0.4427 1.36718,-0.91145 1.91407,-1.40625 0.54686,-0.49478 0.8203,-0.96353 0.82031,-1.40625 -1e-5,-0.23436 -0.0912,-0.42967 -0.27344,-0.58594 -0.1823,-0.15623 -0.40365,-0.28644 -0.66406,-0.39063 -0.23439,-0.10414 -0.48178,-0.18227 -0.74219,-0.23437 -0.26042,-0.0521 -0.4948,-0.0781 -0.70312,-0.0781"
         style="fill:#ffffff;font-family:Shadows Into Light;-inkscape-font-specification:Shadows Into Light"
         id="path3140" />
      <path
         class="path"
         d="m 138.71094,378.65129 c 0,-0.026 -0.013,-0.0651 -0.0391,-0.11719 0,-0.0781 0,-0.13019 0,-0.15625 0,-0.39061 0.15625,-0.61196 0.46875,-0.66406 0.3125,-0.0781 0.59896,-0.11717 0.85938,-0.11719 0.28646,2e-5 0.61198,0.24741 0.97656,0.74219 0.36458,0.46876 0.76823,1.10678 1.21094,1.91406 0.46875,0.78126 0.9375,1.64064 1.40625,2.57812 0.49479,0.93752 0.98958,1.86199 1.48437,2.77344 0.52083,0.88543 1.04166,1.69272 1.5625,2.42188 0.54687,0.72917 1.0677,1.26302 1.5625,1.60156 0.15624,-2.36978 0.27343,-4.38801 0.35157,-6.05469 0.0781,-1.66665 0.1302,-3.0729 0.15625,-4.21875 0.0521,-1.14581 0.0781,-2.04425 0.0781,-2.69531 -1e-5,-0.67707 -0.013,-1.1979 -0.0391,-1.5625 -1e-5,-0.36456 -0.013,-0.59894 -0.0391,-0.70313 -1e-5,-0.13018 -1e-5,-0.22133 0,-0.27343 -1e-5,-0.46873 0.0781,-0.75519 0.23437,-0.85938 0.18228,-0.10414 0.41666,-0.15623 0.70313,-0.15625 0.33853,2e-5 0.69009,0.0521 1.05468,0.15625 0.36458,0.10419 0.54687,0.36461 0.54688,0.78125 0.0781,1.69273 0.0781,3.41148 0,5.15625 -0.0521,1.71877 -0.14324,3.43751 -0.27344,5.15625 -0.13022,1.69272 -0.23439,3.35938 -0.3125,5 -0.0781,1.64063 -0.0781,3.22917 0,4.76563 -0.0521,0.0521 -0.16928,0.11718 -0.35156,0.19531 -0.1823,0.0521 -0.37762,0.10417 -0.58594,0.15625 -0.20834,0.0521 -0.41668,0.0911 -0.625,0.11719 -0.1823,0.026 -0.31251,0.0391 -0.39062,0.0391 -0.26043,-0.0521 -0.66407,-0.40365 -1.21094,-1.05469 -0.54688,-0.67708 -1.15886,-1.52343 -1.83594,-2.53906 -0.67709,-1.01562 -1.38021,-2.14843 -2.10937,-3.39844 -0.72917,-1.24999 -1.4323,-2.46093 -2.10938,-3.63281 -0.65104,-1.17186 -1.22396,-2.23957 -1.71875,-3.20313 -0.49479,-0.96352 -0.83333,-1.67967 -1.01562,-2.14843"
         style="fill:#ffffff;font-family:Shadows Into Light;-inkscape-font-specification:Shadows Into Light"
         id="path3142" />
      <path
         class="path"
         d="m 153.00781,386.26847 c 0.3125,-4.53123 0.96354,-8.21612 1.95313,-11.05468 0.98958,-2.86456 2.13541,-4.90883 3.4375,-6.13282 1.32812,-1.22393 2.6953,-1.62757 4.10156,-1.21093 1.43228,0.39065 2.72134,1.57554 3.86719,3.55468 0.39061,1.30211 0.638,2.76044 0.74218,4.375 0.1302,1.61461 0.10416,3.25523 -0.0781,4.92188 -0.15626,1.64064 -0.45574,3.25522 -0.89844,4.84375 -0.41668,1.58855 -1.00261,3.02084 -1.75781,4.29687 -0.75522,1.27605 -1.65366,2.35678 -2.69531,3.24219 -1.04168,0.85938 -2.23959,1.38021 -3.59375,1.5625 -0.96355,0 -1.77084,-0.29948 -2.42188,-0.89844 -0.65104,-0.59895 -1.17187,-1.32812 -1.5625,-2.1875 -0.39062,-0.88541 -0.67708,-1.79687 -0.85937,-2.73437 -0.15625,-0.96354 -0.23438,-1.82291 -0.23438,-2.57813 m 2.07031,-0.23437 c 0,0.65105 0.026,1.32813 0.0781,2.03125 0.0781,0.70313 0.23437,1.35417 0.46875,1.95312 0.23437,0.57293 0.58593,1.0547 1.05469,1.44532 0.49478,0.36458 1.14583,0.54687 1.95312,0.54687 0.91145,0 1.74479,-0.41666 2.5,-1.25 0.7552,-0.83333 1.40624,-1.91405 1.95313,-3.24219 0.54686,-1.32811 0.97655,-2.79946 1.28906,-4.41406 0.33853,-1.61457 0.53384,-3.19009 0.58594,-4.72656 0.0781,-1.56248 -2e-5,-2.99477 -0.23438,-4.29688 -0.20834,-1.30206 -0.58595,-2.27862 -1.13281,-2.92968 -0.54689,-0.67706 -1.27605,-0.9505 -2.1875,-0.82032 -0.88542,0.13024 -1.95313,0.84638 -3.20313,2.14844 -0.36458,1.06773 -0.72917,2.1745 -1.09375,3.32031 -0.36458,1.11981 -0.6901,2.26565 -0.97656,3.4375 -0.28646,1.14585 -0.53385,2.29168 -0.74219,3.4375 -0.20833,1.14585 -0.3125,2.26564 -0.3125,3.35938"
         style="fill:#ffffff;font-family:Shadows Into Light;-inkscape-font-specification:Shadows Into Light"
         id="path3144" />
      <path
         class="path"
         d="m 168.86719,404.90129 c 0.28645,-2.73439 0.4427,-5.33855 0.46875,-7.8125 0.0521,-2.44792 0.0391,-4.86979 -0.0391,-7.26563 -0.0521,-2.39582 -0.14323,-4.8177 -0.27343,-7.26562 -0.13021,-2.44791 -0.20834,-5.03905 -0.23438,-7.77344 0.0781,-0.36456 0.16927,-0.638 0.27344,-0.82031 0.13021,-0.20832 0.45573,-0.2604 0.97656,-0.15625 0.54687,0.13023 0.8724,0.44273 0.97656,0.9375 0.10417,0.46877 0.13021,1.00262 0.0781,1.60156 -0.0521,0.59898 -0.13021,1.19793 -0.23438,1.79687 -0.10416,0.59898 -0.10416,1.08075 0,1.44532 0.83333,-0.59895 1.71875,-1.22395 2.65625,-1.875 0.9375,-0.65103 1.91406,-1.22394 2.92969,-1.71875 1.01562,-0.52082 2.0703,-0.89842 3.16406,-1.13282 1.09374,-0.26039 2.18749,-0.27341 3.28125,-0.0391 1.35416,0.31252 2.29165,0.78127 2.8125,1.40625 0.54686,0.59898 0.75519,1.3021 0.625,2.10938 -0.10418,0.78126 -0.46876,1.65366 -1.09375,2.61718 -0.62501,0.93752 -1.39324,1.88804 -2.30468,2.85157 -0.91148,0.96355 -1.9271,1.91407 -3.04688,2.85156 -1.1198,0.93751 -2.21355,1.8099 -3.28125,2.61719 -1.06771,0.78125 -2.07032,1.47136 -3.00781,2.07031 -0.91146,0.59896 -1.64063,1.04167 -2.1875,1.32812 -0.026,0.31251 -0.0651,0.8073 -0.11719,1.48438 -0.026,0.65104 -0.0651,1.39323 -0.11719,2.22656 -0.026,0.83333 -0.0651,1.70573 -0.11718,2.61719 -0.026,0.91145 -0.0651,1.78385 -0.11719,2.61719 -0.026,0.83332 -0.0651,1.57551 -0.11719,2.22656 -0.026,0.65103 -0.0391,1.1328 -0.0391,1.44531 -0.0521,0.026 -0.14323,0.0521 -0.27344,0.0781 -0.13021,0.026 -0.28646,0.039 -0.46875,0.0391 -0.18229,0.026 -0.35156,0.039 -0.50781,0.0391 -0.15625,0.026 -0.26042,0.026 -0.3125,0 -0.0781,-10e-6 -0.15625,-0.0781 -0.23438,-0.23437 -0.0781,-0.13022 -0.11718,-0.23439 -0.11718,-0.3125 m 2.1875,-21.40625 c -0.0781,0.36459 -0.10417,0.82032 -0.0781,1.36718 0.0521,0.52085 0.10417,1.08074 0.15625,1.67969 0.0781,0.57293 0.15625,1.13282 0.23438,1.67969 0.0781,0.54688 0.1302,1.01563 0.15625,1.40625 0.98958,-0.7552 2.13541,-1.52343 3.4375,-2.30469 1.32811,-0.78124 2.60415,-1.62759 3.82812,-2.53906 1.24999,-0.91145 2.35676,-1.92707 3.32031,-3.04688 0.96353,-1.11977 1.60155,-2.38279 1.91407,-3.78906 0.10415,-0.54686 0.0521,-0.91144 -0.15625,-1.09375 -0.18231,-0.20831 -0.50783,-0.35154 -0.97657,-0.42969 -0.98959,-0.20831 -2.1224,-0.13019 -3.39843,0.23438 -1.27605,0.33856 -2.51303,0.84637 -3.71094,1.52344 -1.17188,0.6771 -2.20053,1.48439 -3.08594,2.42187 -0.88542,0.93752 -1.43229,1.90106 -1.64062,2.89063"
         style="fill:#ffffff;font-family:Shadows Into Light;-inkscape-font-specification:Shadows Into Light"
         id="path3146" />
      <path
         class="path"
         d="m 191.13281,394.04191 c 0,0.026 0.27344,-0.13021 0.82031,-0.46875 0.57292,-0.33854 1.23698,-0.78125 1.99219,-1.32812 0.78124,-0.57292 1.57551,-1.1849 2.38281,-1.83594 0.80729,-0.67708 1.47135,-1.3151 1.99219,-1.91406 0.52082,-0.59895 0.79426,-1.10677 0.82031,-1.52344 0.0521,-0.4427 -0.29949,-0.72916 -1.05468,-0.85938 -0.93751,-0.1302 -1.73178,-0.11717 -2.38282,0.0391 -0.625,0.15626 -1.19792,0.33855 -1.71875,0.54687 -0.52083,0.20834 -1.01563,0.40366 -1.48437,0.58594 -0.44271,0.1823 -0.9375,0.2474 -1.48438,0.19531 -1.14583,1e-5 -1.9401,-0.35155 -2.38281,-1.05469 -0.41667,-0.72915 -0.625,-1.70571 -0.625,-2.92968 0,-1.22395 0.27344,-2.3828 0.82031,-3.47657 0.54688,-1.11977 1.25,-2.08331 2.10938,-2.89062 0.85937,-0.80727 1.84895,-1.44529 2.96875,-1.91406 1.11978,-0.49477 2.26562,-0.74217 3.4375,-0.74219 0.46874,2e-5 0.87238,0.0391 1.21094,0.11719 0.33853,0.0781 0.5078,0.37762 0.50781,0.89843 -1e-5,0.36461 -0.15626,0.71617 -0.46875,1.05469 -0.31251,0.31252 -0.66407,0.46877 -1.05469,0.46875 -0.026,2e-5 -0.0911,-0.013 -0.19531,-0.0391 -0.10418,-0.0521 -0.20834,-0.11717 -0.3125,-0.19531 -0.10418,-0.0781 -0.20834,-0.13019 -0.3125,-0.15625 -0.10418,-0.0521 -0.16928,-0.0781 -0.19531,-0.0781 -0.83334,-0.23435 -1.64064,-0.11717 -2.42188,0.35156 -0.78125,0.46877 -1.48438,1.10679 -2.10937,1.91407 -0.59897,0.78126 -1.08074,1.64064 -1.44532,2.57812 -0.36458,0.91147 -0.54687,1.73178 -0.54687,2.46094 0,0.28647 0.0521,0.52084 0.15625,0.70312 0.13021,0.15626 0.28645,0.27345 0.46875,0.35157 0.20833,0.0781 0.42968,0.13021 0.66406,0.15625 0.26041,10e-6 0.52083,10e-6 0.78125,0 0.52083,10e-6 1.04166,-0.0781 1.5625,-0.23438 0.54687,-0.15624 1.0677,-0.33853 1.5625,-0.54687 0.52083,-0.20833 1.04166,-0.39062 1.5625,-0.54688 0.54687,-0.15624 1.10676,-0.23436 1.67969,-0.23437 0.2604,10e-6 0.54686,0.0781 0.85937,0.23437 0.31249,0.13022 0.59895,0.33855 0.85938,0.625 0.2604,0.26043 0.48176,0.57293 0.66406,0.9375 0.18228,0.33855 0.28645,0.71616 0.3125,1.13281 0.15624,0.3646 0.10415,0.84637 -0.15625,1.44532 -0.23439,0.59896 -0.59897,1.23698 -1.09375,1.91406 -0.4948,0.67709 -1.09376,1.36719 -1.79687,2.07031 -0.70314,0.67709 -1.40626,1.30209 -2.10938,1.875 -0.70313,0.54688 -1.39323,0.98959 -2.07031,1.32813 -0.67709,0.36458 -1.25001,0.53385 -1.71875,0.50781 -0.52084,0 -0.83334,-0.15625 -0.9375,-0.46875 -0.0781,-0.3125 -0.11719,-0.66406 -0.11719,-1.05469"
         style="fill:#ffffff;font-family:Shadows Into Light;-inkscape-font-specification:Shadows Into Light"
         id="path3148" />
      <path
         class="path"
         d="m 203.28125,362.9091 c 0.026,3e-5 0.11719,0.013 0.27344,0.0391 0.15625,0.0261 0.32552,0.0521 0.50781,0.0781 0.18229,3e-5 0.35156,0.013 0.50781,0.0391 0.18229,0.0261 0.28646,0.0391 0.3125,0.0391 0.13021,3e-5 0.32552,0.0261 0.58594,0.0781 0.26041,0.0261 0.39062,0.1693 0.39062,0.42968 l 0,3.4375 c 0.44271,-0.10413 0.95052,-0.33851 1.52344,-0.70312 0.57291,-0.3906 1.25,-0.78122 2.03125,-1.17188 0.78124,-0.39059 1.65364,-0.71611 2.61719,-0.97656 0.96353,-0.26038 2.0703,-0.32549 3.32031,-0.19531 1.92707,0.39065 3.3203,0.8594 4.17969,1.40625 0.85936,0.52086 1.31509,1.1068 1.36719,1.75781 0.0521,0.62503 -0.22138,1.30211 -0.82032,2.03125 -0.57293,0.72919 -1.34116,1.4844 -2.30468,2.26563 -0.96356,0.75523 -2.04429,1.51044 -3.24219,2.26562 -1.17189,0.75523 -2.33074,1.49742 -3.47656,2.22656 -1.1198,0.70315 -2.14845,1.36721 -3.08594,1.99219 -0.93751,0.62502 -1.64063,1.18491 -2.10938,1.67969 0.41667,0.18231 1.01562,0.48178 1.79688,0.89844 0.80728,0.39064 1.67968,0.83334 2.61719,1.32812 0.96353,0.46876 1.95311,0.97658 2.96875,1.52344 1.04165,0.54689 2.01821,1.0547 2.92968,1.52344 0.91145,0.44271 1.73176,0.84636 2.46094,1.21093 0.72915,0.33855 1.24998,0.55991 1.5625,0.66407 0.2604,0.13021 0.5078,0.2474 0.74219,0.35156 0.18227,0.13022 0.35154,0.2474 0.50781,0.35156 0.18227,0.10418 0.27342,0.20834 0.27344,0.3125 -2e-5,0.10418 -0.0391,0.2474 -0.11719,0.42969 -0.0521,0.1823 -0.14325,0.35157 -0.27344,0.50781 -0.13022,0.15626 -0.27345,0.29949 -0.42968,0.42969 -0.13023,0.10417 -0.26044,0.15625 -0.39063,0.15625 -0.0521,0 -0.1172,0 -0.19531,0 -0.0521,-0.026 -0.0912,-0.0391 -0.11719,-0.0391 -0.0521,-0.026 -0.23439,-0.10416 -0.54687,-0.23438 -0.28648,-0.15624 -0.59898,-0.32551 -0.9375,-0.50781 -0.31252,-0.18229 -0.62502,-0.33854 -0.9375,-0.46875 -0.28648,-0.15624 -0.46877,-0.24739 -0.54688,-0.27344 -0.28647,-0.10416 -0.75522,-0.29947 -1.40625,-0.58594 -0.62501,-0.31249 -1.34116,-0.65103 -2.14844,-1.01562 -0.78126,-0.39062 -1.61459,-0.80728 -2.5,-1.25 -0.88542,-0.4427 -1.73177,-0.85936 -2.53906,-1.25 -0.78125,-0.39061 -1.4974,-0.72916 -2.14844,-1.01563 -0.625,-0.28644 -1.08073,-0.45571 -1.36718,-0.50781 l 0,11.95313 -1.75782,0 -0.0781,-31.21094 m 2.57812,6.71875 c -0.0521,0.46877 -0.10417,1.01565 -0.15625,1.64062 -0.0521,0.62503 -0.11719,1.27607 -0.19531,1.95313 -0.0521,0.6771 -0.10417,1.35419 -0.15625,2.03125 -0.026,0.6771 -0.0391,1.3021 -0.0391,1.875 0.10416,-0.13019 0.46875,-0.35155 1.09375,-0.66406 0.62499,-0.31248 1.3802,-0.70311 2.26562,-1.17188 0.88541,-0.46873 1.83593,-0.98956 2.85157,-1.5625 1.04165,-0.57289 2.01821,-1.15883 2.92968,-1.75781 0.91145,-0.62498 1.70572,-1.23696 2.38282,-1.83594 0.70311,-0.59893 1.14581,-1.14581 1.32812,-1.64062 0.20832,-0.52081 0.10415,-0.98956 -0.3125,-1.40625 -0.39064,-0.41664 -1.22397,-0.74216 -2.5,-0.97657 -0.70314,-0.052 -1.51043,-0.013 -2.42187,0.11719 -0.88543,0.13024 -1.78387,0.35159 -2.69532,0.66406 -0.88542,0.31253 -1.71875,0.70316 -2.5,1.17188 -0.78125,0.44273 -1.40625,0.96357 -1.875,1.5625"
         style="fill:#ffffff;font-family:Shadows Into Light;-inkscape-font-specification:Shadows Into Light"
         id="path3150" />
      <path
         class="path"
         d="m 222.85156,389.27629 c -0.18229,-1.19791 -0.27344,-2.35677 -0.27344,-3.47657 0,-1.14582 0.0651,-2.30467 0.19532,-3.47656 0.15625,-1.17186 0.36458,-2.3828 0.625,-3.63281 0.28645,-1.27602 0.61197,-2.64321 0.97656,-4.10156 0,-0.28644 0.0781,-0.54686 0.23437,-0.78125 0.15625,-0.2604 0.36459,-0.46873 0.625,-0.625 0.26042,-0.18227 0.53386,-0.3255 0.82032,-0.42969 0.28645,-0.10415 0.55989,-0.15623 0.82031,-0.15625 0.57291,2e-5 1.09374,0.18231 1.5625,0.54687 0.46874,0.36461 0.88541,0.80732 1.25,1.32813 0.39062,0.52085 0.71614,1.08075 0.97656,1.67969 0.28645,0.57293 0.52083,1.06772 0.70313,1.48437 0.20832,0.91148 0.35155,1.95314 0.42968,3.125 0.10416,1.14585 0.11718,2.31772 0.0391,3.51563 -0.0781,1.19792 -0.26043,2.38282 -0.54688,3.55468 -0.28646,1.14584 -0.69011,2.20053 -1.21094,3.16407 -0.52084,0.96354 -1.19792,1.77083 -2.03125,2.42187 -0.80729,0.65104 -1.77083,1.05469 -2.89062,1.21094 -0.59896,0 -1.05469,-0.19531 -1.36719,-0.58594 -0.3125,-0.41666 -0.54687,-0.91145 -0.70312,-1.48437 -0.13021,-0.59896 -0.20834,-1.19792 -0.23438,-1.79688 0,-0.59895 0,-1.09374 0,-1.48437 m 1.99219,-0.11719 c 0,0.26042 0,0.50782 0,0.74219 0.026,0.23438 0.0521,0.46875 0.0781,0.70312 0.0521,0.20834 0.10417,0.44271 0.15625,0.70313 0.0781,0.23438 0.16927,0.50781 0.27344,0.82031 l 0.23438,0 c 0.62499,0 1.15885,-0.20833 1.60156,-0.625 0.4427,-0.41666 0.82031,-0.95052 1.13281,-1.60156 0.3125,-0.67708 0.57291,-1.41927 0.78125,-2.22657 0.20833,-0.83332 0.36458,-1.64061 0.46875,-2.42187 0.1302,-0.80728 0.20833,-1.54947 0.23438,-2.22656 0.0521,-0.70312 0.0781,-1.26301 0.0781,-1.67969 l 0,-0.78125 c -1e-5,-0.33853 -0.013,-0.71613 -0.0391,-1.13281 -0.026,-0.4427 -0.0781,-0.8854 -0.15625,-1.32813 -0.0521,-0.46873 -0.14324,-0.8854 -0.27344,-1.25 -0.13021,-0.3906 -0.29948,-0.7031 -0.50781,-0.9375 -0.20834,-0.23435 -0.48178,-0.35154 -0.82031,-0.35156 -0.57292,-0.18227 -1.06772,-0.14321 -1.48438,0.11719 -0.39063,0.26043 -0.71615,0.70314 -0.97656,1.32812 -0.23438,0.59898 -0.41667,1.34116 -0.54688,2.22656 -0.13021,0.88544 -0.20833,1.862 -0.23437,2.92969 -0.026,1.06772 -0.0391,2.20053 -0.0391,3.39844 0.026,1.19792 0.0391,2.39584 0.0391,3.59375"
         style="fill:#ffffff;font-family:Shadows Into Light;-inkscape-font-specification:Shadows Into Light"
         id="path3152" />
      <path
         class="path"
         d="m 233.59375,385.64347 c 0.0781,-0.93749 0.15625,-1.95311 0.23437,-3.04687 0.0781,-1.11978 0.19532,-2.22655 0.35157,-3.32031 0.18229,-1.09374 0.40364,-2.1354 0.66406,-3.125 0.28646,-0.98957 0.65104,-1.86196 1.09375,-2.61719 0.46875,-0.78123 1.04166,-1.39321 1.71875,-1.83594 0.67708,-0.46872 1.49739,-0.69008 2.46094,-0.66406 0.65103,2e-5 1.14582,0.27346 1.48437,0.82031 0.36458,0.5469 0.61197,1.21096 0.74219,1.99219 0.15624,0.78127 0.23436,1.58856 0.23437,2.42187 0.026,0.80731 0.0391,1.47138 0.0391,1.99219 -0.52085,2e-5 -0.95053,-0.22134 -1.28907,-0.66406 -0.33855,-0.46873 -0.59896,-1.00259 -0.78125,-1.60156 -0.18229,-0.59894 -0.3125,-1.18488 -0.39062,-1.75782 l -0.11719,-1.13281 c -0.026,2e-5 -0.0781,2e-5 -0.15625,0 -0.0521,-0.026 -0.0911,-0.039 -0.11719,-0.0391 -0.44271,2e-5 -0.85938,0.24742 -1.25,0.74219 -0.36458,0.49481 -0.71615,1.13283 -1.05468,1.91406 -0.31251,0.75523 -0.58594,1.6146 -0.82032,2.57812 -0.23437,0.93752 -0.42969,1.862 -0.58593,2.77344 -0.15626,0.91147 -0.28646,1.75783 -0.39063,2.53906 -0.0781,0.75522 -0.11719,1.34116 -0.11719,1.75782 -0.0521,0.67709 -0.0521,1.41928 0,2.22656 0.0521,0.8073 0.20834,1.56251 0.46875,2.26562 0.26042,0.70313 0.625,1.31511 1.09375,1.83594 0.46875,0.4948 1.09375,0.83334 1.875,1.01563 0.96354,0 1.74479,-0.13021 2.34375,-0.39063 0.59895,-0.26041 1.08072,-0.61197 1.44532,-1.05469 0.39061,-0.4427 0.69009,-0.93749 0.89843,-1.48437 0.20833,-0.54687 0.40364,-1.10677 0.58594,-1.67969 0.20832,-0.59895 0.41666,-1.18489 0.625,-1.75781 0.20832,-0.57291 0.5078,-1.10676 0.89844,-1.60156 0.31249,-0.0781 0.53384,-0.0651 0.66406,0.0391 0.15624,0.0781 0.26041,0.19532 0.3125,0.35156 0.0521,0.15626 0.0781,0.33855 0.0781,0.54688 l 0,0.42968 c -2e-5,1.09376 -0.18231,2.14845 -0.54688,3.16407 -0.36459,1.01563 -0.89845,1.92708 -1.60156,2.73437 -0.70314,0.78125 -1.54949,1.41927 -2.53906,1.91406 -0.96355,0.46875 -2.07032,0.70313 -3.32032,0.70313 -1.04167,0 -1.91406,-0.32552 -2.61718,-0.97656 -0.67709,-0.67708 -1.21094,-1.48438 -1.60157,-2.42188 -0.36458,-0.93749 -0.625,-1.91406 -0.78125,-2.92969 -0.15625,-1.04165 -0.23437,-1.92707 -0.23437,-2.65625"
         style="fill:#ffffff;font-family:Shadows Into Light;-inkscape-font-specification:Shadows Into Light"
         id="path3154" />
      <path
         class="path"
         d="m 250.35156,364.62785 c 0.54687,-0.5208 0.97656,-0.72914 1.28906,-0.625 0.33854,0.1042 0.58594,0.45576 0.74219,1.05469 0.15625,0.59898 0.24739,1.38023 0.27344,2.34375 0.026,0.96356 0.013,2.05731 -0.0391,3.28125 -0.026,1.19794 -0.0911,2.47398 -0.19532,3.82812 -0.10417,1.32815 -0.19531,2.64325 -0.27343,3.94531 -0.0781,1.27606 -0.13021,2.50002 -0.15625,3.67188 -0.026,1.17189 0.013,2.18751 0.11718,3.04687 l 0.11719,0 c 0.0521,1e-5 0.0911,-0.013 0.11719,-0.0391 1.35416,-1.35415 2.5651,-2.78644 3.63281,-4.29687 1.0677,-1.5104 2.03124,-2.92967 2.89063,-4.25782 0.85936,-1.35414 1.61457,-2.52602 2.26562,-3.51562 0.67707,-0.98956 1.30207,-1.66664 1.875,-2.03125 0.39061,2e-5 0.71613,0.0651 0.97656,0.19531 0.28645,0.13023 0.42968,0.42971 0.42969,0.89844 -1e-5,0.0521 -0.013,0.14325 -0.0391,0.27344 -2e-5,0.10419 -2e-5,0.18231 0,0.23437 -0.65106,1.32815 -1.3672,2.66929 -2.14844,4.02344 -0.78126,1.32814 -1.62761,2.6172 -2.53906,3.86719 -0.91147,1.25001 -1.90105,2.4349 -2.96875,3.55468 -1.04167,1.11981 -2.17449,2.13543 -3.39844,3.04688 0,0.026 -0.013,0.0781 -0.0391,0.15625 -1e-5,0.0521 -1e-5,0.0911 0,0.11719 -1e-5,0.26042 0.20833,0.54688 0.625,0.85937 0.4427,0.31251 0.98958,0.61199 1.64062,0.89844 0.67708,0.28646 1.41927,0.57292 2.22657,0.85937 0.83332,0.28647 1.64061,0.53386 2.42187,0.74219 0.80728,0.20834 1.54947,0.37761 2.22656,0.50781 0.70312,0.13022 1.24999,0.19532 1.64063,0.19532 -2e-5,0.10417 -2e-5,0.29948 0,0.58593 0.026,0.28647 0.013,0.58594 -0.0391,0.89844 -0.0521,0.3125 -0.14325,0.59896 -0.27344,0.85938 -0.13022,0.23437 -0.33856,0.35156 -0.625,0.35156 l -0.15625,0 c -0.0521,0 -0.0912,-0.013 -0.11719,-0.0391 l -11.17187,-4.49219 c -0.026,1.53646 -0.13021,2.78646 -0.3125,3.75 -0.1823,0.9375 -0.40365,1.6276 -0.66407,2.07031 -0.23437,0.46875 -0.49479,0.6901 -0.78125,0.66406 -0.26041,-0.026 -0.49479,-0.23437 -0.70312,-0.625 l 1.13281,-30.85937"
         style="fill:#ffffff;font-family:Shadows Into Light;-inkscape-font-specification:Shadows Into Light"
         id="path3156" />
      <path
         class="path"
         d="m 269.49219,394.04191 c -10e-6,0.026 0.27343,-0.13021 0.82031,-0.46875 0.57291,-0.33854 1.23697,-0.78125 1.99219,-1.32812 0.78124,-0.57292 1.57551,-1.1849 2.38281,-1.83594 0.80728,-0.67708 1.47134,-1.3151 1.99219,-1.91406 0.52082,-0.59895 0.79426,-1.10677 0.82031,-1.52344 0.0521,-0.4427 -0.29949,-0.72916 -1.05469,-0.85938 -0.93751,-0.1302 -1.73178,-0.11717 -2.38281,0.0391 -0.62501,0.15626 -1.19792,0.33855 -1.71875,0.54687 -0.52084,0.20834 -1.01563,0.40366 -1.48438,0.58594 -0.44271,0.1823 -0.9375,0.2474 -1.48437,0.19531 -1.14584,1e-5 -1.94011,-0.35155 -2.38281,-1.05469 -0.41667,-0.72915 -0.625,-1.70571 -0.625,-2.92968 0,-1.22395 0.27343,-2.3828 0.82031,-3.47657 0.54687,-1.11977 1.25,-2.08331 2.10937,-2.89062 0.85938,-0.80727 1.84896,-1.44529 2.96875,-1.91406 1.11979,-0.49477 2.26562,-0.74217 3.4375,-0.74219 0.46874,2e-5 0.87239,0.0391 1.21094,0.11719 0.33853,0.0781 0.5078,0.37762 0.50781,0.89843 -1e-5,0.36461 -0.15626,0.71617 -0.46875,1.05469 -0.31251,0.31252 -0.66407,0.46877 -1.05468,0.46875 -0.026,2e-5 -0.0912,-0.013 -0.19532,-0.0391 -0.10417,-0.0521 -0.20834,-0.11717 -0.3125,-0.19531 -0.10417,-0.0781 -0.20834,-0.13019 -0.3125,-0.15625 -0.10417,-0.0521 -0.16928,-0.0781 -0.19531,-0.0781 -0.83334,-0.23435 -1.64063,-0.11717 -2.42187,0.35156 -0.78126,0.46877 -1.48438,1.10679 -2.10938,1.91407 -0.59896,0.78126 -1.08073,1.64064 -1.44531,2.57812 -0.36459,0.91147 -0.54688,1.73178 -0.54688,2.46094 0,0.28647 0.0521,0.52084 0.15625,0.70312 0.13021,0.15626 0.28646,0.27345 0.46875,0.35157 0.20833,0.0781 0.42969,0.13021 0.66407,0.15625 0.26041,10e-6 0.52083,10e-6 0.78125,0 0.52083,10e-6 1.04166,-0.0781 1.5625,-0.23438 0.54687,-0.15624 1.0677,-0.33853 1.5625,-0.54687 0.52082,-0.20833 1.04165,-0.39062 1.5625,-0.54688 0.54686,-0.15624 1.10676,-0.23436 1.67968,-0.23437 0.26041,10e-6 0.54687,0.0781 0.85938,0.23437 0.31249,0.13022 0.59895,0.33855 0.85937,0.625 0.26041,0.26043 0.48176,0.57293 0.66407,0.9375 0.18228,0.33855 0.28644,0.71616 0.3125,1.13281 0.15623,0.3646 0.10415,0.84637 -0.15625,1.44532 -0.23439,0.59896 -0.59897,1.23698 -1.09375,1.91406 -0.49481,0.67709 -1.09376,1.36719 -1.79688,2.07031 -0.70313,0.67709 -1.40626,1.30209 -2.10937,1.875 -0.70314,0.54688 -1.39324,0.98959 -2.07032,1.32813 -0.67708,0.36458 -1.25,0.53385 -1.71875,0.50781 -0.52083,0 -0.83333,-0.15625 -0.9375,-0.46875 -0.0781,-0.3125 -0.11719,-0.66406 -0.11718,-1.05469"
         style="fill:#ffffff;font-family:Shadows Into Light;-inkscape-font-specification:Shadows Into Light"
         id="path3158" />
      <path
         class="path"
         d="m 282.14844,377.94816 c -0.26042,0.13023 -0.50782,0.27346 -0.74219,0.42969 -0.20833,0.13022 -0.41667,0.26043 -0.625,0.39062 -0.20833,0.10419 -0.41667,0.18231 -0.625,0.23438 -0.20833,0.0521 -0.42969,0.0521 -0.66406,0 -0.15625,2e-5 -0.28646,-0.0911 -0.39063,-0.27344 -0.10416,-0.20832 -0.18229,-0.42967 -0.23437,-0.66406 -0.0781,-0.2604 -0.13021,-0.5078 -0.15625,-0.74219 -0.026,-0.2604 -0.026,-0.45571 0,-0.58594 l 3.75,-2.14843 0.23437,-10 c 0.0521,-0.33851 0.26042,-0.46872 0.625,-0.39063 0.36458,0.0521 0.74219,0.13024 1.13281,0.23438 0.0521,3e-5 0.13021,0.0261 0.23438,0.0781 0.1302,0.0261 0.22135,0.0521 0.27344,0.0781 -0.0521,0.70315 -0.11719,1.47138 -0.19532,2.30468 -0.0521,0.80732 -0.10417,1.62763 -0.15625,2.46094 -0.0521,0.80732 -0.0912,1.60159 -0.11718,2.38281 -10e-6,0.78128 0.0391,1.4844 0.11718,2.10938 l 5.85938,-1.64063 c 0.10416,-0.026 0.18228,0.0521 0.23437,0.23438 0.0781,0.15627 0.14322,0.35158 0.19532,0.58594 0.0781,0.23439 0.13019,0.46877 0.15625,0.70312 0.026,0.2344 0.0391,0.35159 0.0391,0.35156 l -6.64063,2.8125 c 0,0.2344 0.013,0.79429 0.0391,1.67969 0.0521,0.88543 0.10416,1.94012 0.15625,3.16406 0.0521,1.19793 0.10416,2.50001 0.15625,3.90625 0.0521,1.38022 0.10416,2.66928 0.15625,3.86719 0.0521,1.19792 0.0911,2.25261 0.11718,3.16406 0.026,0.88542 0.0391,1.44532 0.0391,1.67969 -0.0521,0.78125 -0.28647,1.17188 -0.70313,1.17188 -0.39063,0 -0.82031,-0.19532 -1.28906,-0.58594 l -0.97656,-16.99219"
         style="fill:#ffffff;font-family:Shadows Into Light;-inkscape-font-specification:Shadows Into Light"
         id="path3160" />
      <path
         class="path"
         d="m 302.96875,393.61222 c -0.13022,-0.67708 -0.24741,-1.48437 -0.35156,-2.42187 -0.0781,-0.96354 -0.16928,-1.92708 -0.27344,-2.89063 -0.10418,-0.98957 -0.23439,-1.91405 -0.39063,-2.77343 -0.13021,-0.85937 -0.33855,-1.56249 -0.625,-2.10938 -1.32813,2.70834 -2.5,4.84376 -3.51562,6.40625 -1.01563,1.53646 -1.91407,2.64323 -2.69531,3.32031 -0.75521,0.65105 -1.39323,0.96355 -1.91407,0.9375 -0.52083,-0.026 -0.95052,-0.26041 -1.28906,-0.70312 -0.33854,-0.44271 -0.58594,-1.0026 -0.74219,-1.67969 -0.1302,-0.70312 -0.22135,-1.35416 -0.27343,-1.95312 0,-0.57291 0.13021,-1.38021 0.39062,-2.42188 0.26042,-1.04166 0.61198,-2.17447 1.05469,-3.39844 0.44271,-1.24998 0.96354,-2.513 1.5625,-3.78906 0.625,-1.27602 1.28906,-2.43488 1.99219,-3.47656 0.70312,-1.04165 1.43228,-1.90102 2.1875,-2.57813 0.7552,-0.67706 1.51041,-1.0156 2.26562,-1.01562 1.11978,-0.18227 1.9401,0.0651 2.46094,0.74219 0.54686,0.65106 0.65103,1.75783 0.3125,3.32031 -10e-6,1.71877 0.0651,3.19012 0.19531,4.41406 0.15624,1.22397 0.31249,2.39585 0.46875,3.51563 0.18228,1.1198 0.33853,2.29167 0.46875,3.51562 0.15624,1.22397 0.23436,2.69532 0.23438,4.41406 -2e-5,0.31251 -0.0391,0.58594 -0.11719,0.82032 -0.0521,0.20833 -0.3646,0.3125 -0.9375,0.3125 -0.0781,0 -0.1823,-0.0651 -0.3125,-0.19532 -0.10418,-0.1302 -0.15626,-0.23437 -0.15625,-0.3125 m -2.10938,-17.46093 c -0.28646,-0.41665 -0.67709,-0.45571 -1.17187,-0.11719 -0.4948,0.33856 -1.01563,0.89845 -1.5625,1.67969 -0.54688,0.78126 -1.10678,1.71876 -1.67969,2.8125 -0.57292,1.09376 -1.10677,2.20053 -1.60156,3.32031 -0.4948,1.1198 -0.92448,2.18751 -1.28906,3.20312 -0.36459,0.98959 -0.61198,1.80991 -0.74219,2.46094 0,0.93751 0.14323,1.47136 0.42969,1.60156 0.28645,0.10417 0.63802,-0.0521 1.05468,-0.46875 0.41667,-0.41666 0.88542,-1.01562 1.40625,-1.79687 0.54687,-0.78124 1.06771,-1.61458 1.5625,-2.5 0.52083,-0.88541 1.0026,-1.74478 1.44532,-2.57813 0.46874,-0.83332 0.83332,-1.5104 1.09375,-2.03125 0.23436,-0.54686 0.41665,-1.05467 0.54687,-1.52343 0.1302,-0.46874 0.23437,-0.91145 0.3125,-1.32813 0.10416,-0.44269 0.15624,-0.8854 0.15625,-1.32812 0.026,-0.44269 0.0391,-0.91144 0.0391,-1.40625"
         style="fill:#ffffff;font-family:Shadows Into Light;-inkscape-font-specification:Shadows Into Light"
         id="path3162" />
      <path
         class="path"
         d="m 306.5625,375.79972 0,-0.3125 c 0,-0.26039 0.0911,-0.44268 0.27344,-0.54687 0.20833,-0.10415 0.4427,-0.15623 0.70312,-0.15625 0.20833,2e-5 0.40365,0.0261 0.58594,0.0781 0.18229,0.0261 0.32552,0.16929 0.42969,0.42969 0.0781,0.39065 0.15624,0.93752 0.23437,1.64063 0.0781,0.6771 0.16927,1.4323 0.27344,2.26562 0.10416,0.83335 0.20833,1.71877 0.3125,2.65625 0.1302,0.91147 0.24739,1.78387 0.35156,2.61719 0.13021,0.8073 0.26041,1.53647 0.39063,2.1875 0.1302,0.65105 0.27343,1.14584 0.42968,1.48437 -0.0781,-2.49999 0,-4.66144 0.23438,-6.48437 0.23437,-1.84894 0.67708,-3.34634 1.32812,-4.49219 0.67708,-1.17185 1.58854,-1.97915 2.73438,-2.42187 1.17186,-0.46873 2.6302,-0.5729 4.375,-0.3125 0.80728,2e-5 1.21092,0.4297 1.21094,1.28906 -2e-5,0.33856 -0.22137,0.57293 -0.66407,0.70312 -0.44272,0.10419 -0.93751,0.18231 -1.48437,0.23438 -0.54689,0.0261 -1.08074,0.0651 -1.60156,0.11719 -0.52085,0.0521 -0.89845,0.18231 -1.13282,0.39062 -0.9375,0.52085 -1.60157,1.32814 -1.99218,2.42188 -0.36459,1.09376 -0.62501,2.38282 -0.78125,3.86718 -0.15626,1.48439 -0.27345,3.11199 -0.35157,4.88282 -0.0521,1.74479 -0.22136,3.54167 -0.50781,5.39062 0,0.26042 -0.10417,0.45573 -0.3125,0.58594 -0.20834,0.13021 -0.46875,0.19531 -0.78125,0.19531 -0.28646,0 -0.57292,-0.0651 -0.85937,-0.19531 -0.26042,-0.13021 -0.46876,-0.32552 -0.625,-0.58594 l -2.77344,-17.92969"
         style="fill:#ffffff;font-family:Shadows Into Light;-inkscape-font-specification:Shadows Into Light"
         id="path3164" />
      <path
         class="path"
         d="m 325.50781,394.04191 c 0,0.026 0.27344,-0.13021 0.82031,-0.46875 0.57292,-0.33854 1.23698,-0.78125 1.99219,-1.32812 0.78124,-0.57292 1.57551,-1.1849 2.38281,-1.83594 0.80729,-0.67708 1.47135,-1.3151 1.99219,-1.91406 0.52082,-0.59895 0.79426,-1.10677 0.82031,-1.52344 0.0521,-0.4427 -0.29949,-0.72916 -1.05468,-0.85938 -0.93751,-0.1302 -1.73178,-0.11717 -2.38282,0.0391 -0.625,0.15626 -1.19792,0.33855 -1.71875,0.54687 -0.52083,0.20834 -1.01563,0.40366 -1.48437,0.58594 -0.44271,0.1823 -0.9375,0.2474 -1.48438,0.19531 -1.14583,1e-5 -1.9401,-0.35155 -2.38281,-1.05469 -0.41667,-0.72915 -0.625,-1.70571 -0.625,-2.92968 0,-1.22395 0.27344,-2.3828 0.82031,-3.47657 0.54688,-1.11977 1.25,-2.08331 2.10938,-2.89062 0.85937,-0.80727 1.84895,-1.44529 2.96875,-1.91406 1.11978,-0.49477 2.26562,-0.74217 3.4375,-0.74219 0.46874,2e-5 0.87238,0.0391 1.21094,0.11719 0.33853,0.0781 0.5078,0.37762 0.50781,0.89843 -10e-6,0.36461 -0.15626,0.71617 -0.46875,1.05469 -0.31251,0.31252 -0.66407,0.46877 -1.05469,0.46875 -0.026,2e-5 -0.0912,-0.013 -0.19531,-0.0391 -0.10418,-0.0521 -0.20834,-0.11717 -0.3125,-0.19531 -0.10418,-0.0781 -0.20834,-0.13019 -0.3125,-0.15625 -0.10418,-0.0521 -0.16928,-0.0781 -0.19531,-0.0781 -0.83334,-0.23435 -1.64064,-0.11717 -2.42188,0.35156 -0.78125,0.46877 -1.48438,1.10679 -2.10937,1.91407 -0.59897,0.78126 -1.08074,1.64064 -1.44532,2.57812 -0.36458,0.91147 -0.54687,1.73178 -0.54687,2.46094 0,0.28647 0.0521,0.52084 0.15625,0.70312 0.13021,0.15626 0.28645,0.27345 0.46875,0.35157 0.20833,0.0781 0.42968,0.13021 0.66406,0.15625 0.26041,10e-6 0.52083,10e-6 0.78125,0 0.52083,10e-6 1.04166,-0.0781 1.5625,-0.23438 0.54687,-0.15624 1.0677,-0.33853 1.5625,-0.54687 0.52083,-0.20833 1.04166,-0.39062 1.5625,-0.54688 0.54687,-0.15624 1.10676,-0.23436 1.67969,-0.23437 0.2604,10e-6 0.54686,0.0781 0.85937,0.23437 0.31249,0.13022 0.59895,0.33855 0.85938,0.625 0.2604,0.26043 0.48176,0.57293 0.66406,0.9375 0.18228,0.33855 0.28645,0.71616 0.3125,1.13281 0.15624,0.3646 0.10415,0.84637 -0.15625,1.44532 -0.23439,0.59896 -0.59897,1.23698 -1.09375,1.91406 -0.4948,0.67709 -1.09376,1.36719 -1.79687,2.07031 -0.70314,0.67709 -1.40626,1.30209 -2.10938,1.875 -0.70313,0.54688 -1.39323,0.98959 -2.07031,1.32813 -0.67709,0.36458 -1.25001,0.53385 -1.71875,0.50781 -0.52084,0 -0.83334,-0.15625 -0.9375,-0.46875 -0.0781,-0.3125 -0.11719,-0.66406 -0.11719,-1.05469"
         style="fill:#ffffff;font-family:Shadows Into Light;-inkscape-font-specification:Shadows Into Light"
         id="path3166" />
      <path
         class="path"
         d="m 337.46094,399.08097 c 0.026,-0.28646 0.0521,-0.6901 0.0781,-1.21093 0.026,-0.52084 0.0391,-1.06771 0.0391,-1.64063 0.026,-0.54687 0.0391,-1.08073 0.0391,-1.60156 0.026,-0.52083 0.0521,-0.92448 0.0781,-1.21094 -0.026,-0.0521 -0.0651,-0.14323 -0.11719,-0.27344 -0.0521,-0.15624 -0.11718,-0.31249 -0.19531,-0.46875 -0.0521,-0.18228 -0.0911,-0.33853 -0.11719,-0.46875 -0.026,-0.1302 -0.0391,-0.23437 -0.0391,-0.3125 0,-0.7552 0.18229,-1.27603 0.54688,-1.5625 0.39062,-0.28645 0.93749,-0.42968 1.64062,-0.42968 0.23437,0.36458 0.41667,0.74219 0.54688,1.13281 0.15624,0.36459 0.23437,0.85938 0.23437,1.48437 0,0.59896 -0.10417,1.36719 -0.3125,2.30469 -0.18229,0.96354 -0.48177,2.22656 -0.89844,3.78906 l -1.52343,0.46875"
         style="fill:#ffffff;font-family:Shadows Into Light;-inkscape-font-specification:Shadows Into Light"
         id="path3168" />
      <path
         class="path"
         d="m 360.58594,393.10441 c -0.0521,-3.30728 -0.11719,-6.1328 -0.19532,-8.47656 -0.0521,-2.36978 -0.10416,-4.36197 -0.15625,-5.97656 -0.0521,-1.61457 -0.11718,-2.89061 -0.19531,-3.82813 -0.0521,-0.96352 -0.0911,-1.73175 -0.11719,-2.30469 -0.026,-0.57289 -0.0521,-0.97653 -0.0781,-1.21093 -0.026,-0.2604 -0.0391,-0.50779 -0.0391,-0.74219 0,-0.44268 0.1302,-0.71612 0.39062,-0.82031 0.26042,-0.13019 0.58594,-0.19529 0.97656,-0.19532 0.44271,3e-5 0.78125,0.0912 1.01563,0.27344 0.26041,0.15628 0.39062,0.58596 0.39062,1.28906 l 0.74219,21.01563 c 0.026,0 0.15625,-0.026 0.39063,-0.0781 0.23437,-0.0521 0.5078,-0.1302 0.82031,-0.23437 0.31249,-0.10416 0.63801,-0.20833 0.97656,-0.3125 0.33854,-0.13021 0.61197,-0.24739 0.82031,-0.35156 0.3125,-0.13021 0.78125,-0.33854 1.40625,-0.625 0.625,-0.28646 1.32812,-0.61198 2.10938,-0.97657 0.78124,-0.36457 1.60155,-0.74218 2.46094,-1.13281 0.8854,-0.41666 1.71873,-0.79426 2.5,-1.13281 0.80727,-0.36458 1.5104,-0.6901 2.10937,-0.97656 0.62498,-0.31249 1.09373,-0.53385 1.40625,-0.66407 l 0.46875,0 c 0.15623,1e-5 0.31248,0.013 0.46875,0.0391 0.15623,0.026 0.28644,0.0911 0.39063,0.19531 0.10414,0.10417 0.16925,0.26042 0.19531,0.46875 -2e-5,0.26042 -0.0521,0.48178 -0.15625,0.66406 -0.0781,0.1823 -0.19533,0.39063 -0.35156,0.625 -1.53648,0.28647 -3.0469,0.8073 -4.53125,1.5625 -1.45835,0.75522 -2.91668,1.53646 -4.375,2.34375 -1.4323,0.8073 -2.89064,1.52344 -4.375,2.14844 -1.45834,0.625 -2.95574,0.9375 -4.49219,0.9375 -0.65104,0 -0.97656,-0.50781 -0.97656,-1.52344"
         style="fill:#ffffff;font-family:Shadows Into Light;-inkscape-font-specification:Shadows Into Light"
         id="path3170" />
      <path
         class="path"
         d="m 382.07031,393.10441 c -0.0521,-3.30728 -0.11719,-6.1328 -0.19531,-8.47656 -0.0521,-2.36978 -0.10417,-4.36197 -0.15625,-5.97656 -0.0521,-1.61457 -0.11719,-2.89061 -0.19531,-3.82813 -0.0521,-0.96352 -0.0911,-1.73175 -0.11719,-2.30469 -0.026,-0.57289 -0.0521,-0.97653 -0.0781,-1.21093 -0.026,-0.2604 -0.0391,-0.50779 -0.0391,-0.74219 0,-0.44268 0.13021,-0.71612 0.39063,-0.82031 0.26041,-0.13019 0.58593,-0.19529 0.97656,-0.19532 0.44271,3e-5 0.78125,0.0912 1.01562,0.27344 0.26042,0.15628 0.39063,0.58596 0.39063,1.28906 l 0.74219,21.01563 c 0.026,0 0.15624,-0.026 0.39062,-0.0781 0.23437,-0.0521 0.50781,-0.1302 0.82031,-0.23437 0.3125,-0.10416 0.63802,-0.20833 0.97657,-0.3125 0.33853,-0.13021 0.61197,-0.24739 0.82031,-0.35156 0.31249,-0.13021 0.78124,-0.33854 1.40625,-0.625 0.62499,-0.28646 1.32811,-0.61198 2.10937,-0.97657 0.78124,-0.36457 1.60155,-0.74218 2.46094,-1.13281 0.8854,-0.41666 1.71874,-0.79426 2.5,-1.13281 0.80728,-0.36458 1.5104,-0.6901 2.10938,-0.97656 0.62498,-0.31249 1.09373,-0.53385 1.40625,-0.66407 l 0.46875,0 c 0.15623,1e-5 0.31248,0.013 0.46875,0.0391 0.15623,0.026 0.28643,0.0911 0.39062,0.19531 0.10415,0.10417 0.16925,0.26042 0.19531,0.46875 -2e-5,0.26042 -0.0521,0.48178 -0.15625,0.66406 -0.0781,0.1823 -0.19533,0.39063 -0.35156,0.625 -1.53647,0.28647 -3.04689,0.8073 -4.53125,1.5625 -1.45835,0.75522 -2.91668,1.53646 -4.375,2.34375 -1.4323,0.8073 -2.89063,1.52344 -4.375,2.14844 -1.45834,0.625 -2.95573,0.9375 -4.49219,0.9375 -0.65104,0 -0.97656,-0.50781 -0.97656,-1.52344"
         style="fill:#ffffff;font-family:Shadows Into Light;-inkscape-font-specification:Shadows Into Light"
         id="path3172" />
      <path
         class="path"
         d="m 402.61719,387.63566 c 0,-0.83332 0.0781,-1.96613 0.23437,-3.39844 0.18229,-1.43228 0.44271,-2.96873 0.78125,-4.60937 0.36458,-1.64061 0.80729,-3.29425 1.32813,-4.96094 0.52083,-1.69268 1.13281,-3.21612 1.83593,-4.57031 0.72917,-1.35414 1.54948,-2.46091 2.46094,-3.32031 0.93749,-0.85935 1.96614,-1.28904 3.08594,-1.28907 0.65103,3e-5 1.1979,0.11722 1.64062,0.35157 0.46874,0.2344 0.84635,0.55992 1.13282,0.97656 0.31248,0.39065 0.53384,0.84638 0.66406,1.36719 0.15624,0.49481 0.23436,1.04169 0.23437,1.64062 -0.46876,3e-5 -0.84636,-0.11716 -1.13281,-0.35156 -0.28647,-0.26039 -0.54689,-0.53383 -0.78125,-0.82031 -0.23438,-0.28644 -0.48178,-0.54685 -0.74219,-0.78125 -0.23438,-0.26039 -0.5599,-0.3906 -0.97656,-0.39063 -0.83334,3e-5 -1.60157,0.40367 -2.30469,1.21094 -0.70313,0.78127 -1.34115,1.78388 -1.91406,3.00781 -0.57292,1.22398 -1.08073,2.59117 -1.52344,4.10156 -0.44271,1.4844 -0.82031,2.94273 -1.13281,4.375 -0.28646,1.40627 -0.50781,2.69533 -0.66406,3.86719 -0.15625,1.14584 -0.23438,2.00522 -0.23438,2.57813 0,0.75521 0.0391,1.4974 0.11719,2.22656 0.0781,0.70313 0.24739,1.34115 0.50781,1.91406 0.26042,0.57292 0.63802,1.04167 1.13282,1.40625 0.49478,0.33855 1.19791,0.50782 2.10937,0.50781 1.04166,1e-5 2.07031,-0.33853 3.08594,-1.01562 1.04166,-0.67708 2.0052,-1.49739 2.89062,-2.46094 0.88541,-0.98957 1.65364,-2.03124 2.30469,-3.125 0.65103,-1.11978 1.11978,-2.09634 1.40625,-2.92969 0.0521,-0.026 0.16926,-0.039 0.35156,-0.0391 0.18228,-0.026 0.29947,-0.039 0.35157,-0.0391 0.31248,10e-6 0.59894,0.0391 0.85937,0.11719 0.28644,0.0521 0.42967,0.28647 0.42969,0.70312 -0.15627,0.83335 -0.52085,1.71876 -1.09375,2.65625 -0.57293,0.91147 -1.25002,1.8099 -2.03125,2.69531 -0.78126,0.88543 -1.64064,1.70574 -2.57813,2.46094 -0.93751,0.75521 -1.84896,1.39323 -2.73437,1.91406 -0.88543,0.52084 -1.70574,0.8724 -2.46094,1.05469 -0.75521,0.20834 -1.36719,0.19531 -1.83594,-0.0391 -0.85937,0 -1.60156,-0.23438 -2.22656,-0.70313 -0.59896,-0.49479 -1.09375,-1.09374 -1.48437,-1.79687 -0.36459,-0.70312 -0.63802,-1.45833 -0.82032,-2.26563 -0.18229,-0.80728 -0.27343,-1.54947 -0.27343,-2.22656"
         style="fill:#ffffff;font-family:Shadows Into Light;-inkscape-font-specification:Shadows Into Light"
         id="path3174" />
    </g>
  </g>
</svg>
