<?xml version="1.0" encoding="UTF-8" standalone="no"?>
<!-- Generator: Adobe Illustrator 24.1.1, SVG Export Plug-In . SVG Version: 6.00 Build 0)  -->

<svg
   version="1.1"
   id="Layer_1"
   x="0px"
   y="0px"
   viewBox="0 0 512 512"
   xml:space="preserve"
   sodipodi:docname="google-cloud-platform.svg"
   style="enable-background:new 0 0 512 512;"
   inkscape:version="1.1 (c4e8f9e, 2021-05-24)"
   xmlns:inkscape="http://www.inkscape.org/namespaces/inkscape"
   xmlns:sodipodi="http://sodipodi.sourceforge.net/DTD/sodipodi-0.dtd"
   xmlns="http://www.w3.org/2000/svg"
   xmlns:svg="http://www.w3.org/2000/svg"><defs
   id="defs290">

</defs><sodipodi:namedview
   id="namedview288"
   pagecolor="#ffffff"
   bordercolor="#666666"
   borderopacity="1.0"
   inkscape:pageshadow="2"
   inkscape:pageopacity="0.0"
   inkscape:pagecheckerboard="0"
   showgrid="false"
   inkscape:zoom="0.97211275"
   inkscape:cx="196.99361"
   inkscape:cy="101.84004"
   inkscape:window-width="2116"
   inkscape:window-height="1108"
   inkscape:window-x="2507"
   inkscape:window-y="862"
   inkscape:window-maximized="0"
   inkscape:current-layer="Layer_1" />
<style
   type="text/css"
   id="style223">
	.st0{fill:#FBBC05;}
	.st1{fill:#EA4335;}
	.st2{fill:#4285F4;}
	.st3{fill:#E0E0E0;}
	.st4{fill:#FFFFFF;}
	.st5{fill:#689DF6;}
	.st6{fill:#3A71DC;}
	.st7{fill:#D1D3E5;}
	.st8{fill:#5885DE;}
	.st9{fill:#FCC937;}
	.st10{fill:#E6E6E6;}
	.st11{fill:#F2D7CE;}
	.st12{fill:#EFA106;}
	.st13{fill:#E1402D;}
	.st14{fill:#F0AC2E;}
	.st15{fill:#C83D31;}
	.st16{fill:#C03B2B;}
	.st17{fill:#EE695D;}
	.st18{fill:#618DE3;}
	.st19{fill:#DADCEA;}
	.st20{fill:#799DE5;}
	.st21{fill:#D3645A;}
	.st22{fill:#CD6255;}
</style>
<path
   class="st0"
   d="m 334.6,392.5 -52.4,91 H 145.1 c -12.2,0 -23.5,-6.6 -29.6,-17.2 L 4.5,273 c -6,-10.5 -6,-23.4 0,-34 l 42.2,-73.6 52.1,90.6 78.5,136.5 h 157.3"
   id="path225" /><path
   class="st1"
   d="m 507.5,273 -111,193.4 c -6.1,10.6 -17.4,17.2 -29.6,17.2 h -84.7 l 52.4,-91 L 413.1,256 334.5,119.5 H 438.8 L 507.4,239 c 6.1,10.5 6.1,23.5 0.1,34"
   id="path227" /><path
   class="st2"
   d="M 438.9,119.5 H 177.4 L 98.8,256 46.7,165.4 115.4,45.6 C 121.5,35 132.8,28.4 145,28.4 h 222 c 12.2,0 23.5,6.6 29.6,17.2 l 42.3,73.9"
   id="path229" /><path
   id="polyline231"
   class="st3"
   d="M 177.40039 119.5 L 98.800781 256 L 177.40039 392.5 L 334.5 392.5 L 413.09961 256 L 334.59961 119.5 L 177.40039 119.5 z M 256 187.69922 C 293.7 187.69922 324.30078 218.3 324.30078 256 C 324.30078 293.7 293.7 324.30078 256 324.30078 C 218.3 324.30078 187.69922 293.7 187.69922 256 C 187.69922 218.3 218.3 187.69922 256 187.69922 z " /><path
   class="st4"
   d="m 367,28.4 c 0,0 0,0 0,0 H 145.1 v 0 0 H 367 c 12.2,0 23.5,6.6 29.6,17.2 l 40.7,71 v 0 l 1.6,2.8 v 0 0 0 L 396.5,45.5 C 390.5,35 379.2,28.4 367,28.4"
   id="path235" /><path
   class="st5"
   d="M 367,28.4 H 145.1 v 0 c -12.2,0 -23.5,6.6 -29.6,17.2 v 0 l -68.8,119.8 0.8,1.4 67.9,-118.4 c 6.1,-10.6 17.4,-17.2 29.6,-17.2 0,0 0,0 0,0 h 222 c 12.2,0 23.5,6.6 29.6,17.2 l 39.1,68.2 h 1.6 l -40.7,-71 C 390.5,35 379.2,28.4 367,28.4"
   id="path237" /><polyline
   class="st6"
   points="435.7,116.6 177.4,116.6 98.8,253.1 98.8,256 177.4,119.5 334.6,119.5 334.6,119.5 334.6,119.4    437.3,119.4 435.7,116.6  "
   id="polyline239" /><polyline
   class="st7"
   points="437.3,116.6 437.3,116.6 438.9,119.4 438.9,119.4 437.3,116.6  "
   id="polyline241" /><polyline
   class="st8"
   points="437.3,116.6 435.7,116.6 437.3,119.4 438.9,119.4 437.3,116.6  "
   id="polyline243" /><path
   class="st4"
   d="M 46.7,165.4 4.5,239 c -0.5,0.9 -1,1.9 -1.4,2.8 0.4,-1 0.9,-1.9 1.4,-2.8 l 42.2,-73.6 52.1,90.6 78.5,136.5 h 157.2 v 0 0 0 H 177.4 v 0 0 L 98.8,256 47.5,166.9 v 0 l -0.8,-1.5"
   id="path245" /><path
   class="st9"
   d="M 46.7,165.5 4.5,239 c -0.5,0.9 -1,1.9 -1.4,2.8 -1.9,4.1 -2.9,8.5 -3,13.1 0,-0.1 0,-0.2 0,-0.3 0,0.5 0,1 0.1,1.4 0.4,-5 1.9,-9.8 4.4,-14.1 l 42.2,-73.6 52.1,90.6 78.5,136.5 h 155.5 l 1.6,-2.8 H 177.4 L 98.8,256 46.7,165.5"
   id="path247" /><polyline
   class="st10"
   points="334.6,392.5 177.4,392.5 177.4,392.5 334.5,392.5 334.6,392.5  "
   id="polyline249" /><polyline
   class="st4"
   points="46.7,165.4 47.5,166.8 47.5,166.8 46.7,165.4  "
   id="polyline251" /><path
   class="st11"
   d="m 4.5,273 110.9,193.4 c 6.1,10.6 17.4,17.2 29.6,17.2 0,0 0,0 0,0 h 137.1 v 0 h -137 c -12.2,0 -23.5,-6.6 -29.6,-17.2 L 4.5,273 m -0.8,-1.5 c 0.3,0.5 0.5,1 0.8,1.5 -0.3,-0.5 -0.5,-1 -0.8,-1.5 m 0,-0.1 c 0,0 0,0.1 0,0 0,0.1 0,0 0,0 m 0,0 c 0,0 0,0 0,0 0,0 0,0 0,0"
   id="path253" /><path
   class="st12"
   d="m 0.1,254.9 c -0.2,5.7 1,11.4 3.6,16.5 0,0 0,0 0,0 0,0 0,0 0,0 0,0 0,0 0,0 0,0 0,0 0,0 0.3,0.5 0.5,1 0.8,1.5 v 0 l 110.9,193.4 c 6.1,10.6 17.4,17.2 29.6,17.2 h 137.1 l 1.6,-2.9 H 145.1 c -12.2,0 -23.5,-6.5 -29.6,-17.2 L 4.5,270.1 C 2,265.8 0.5,260.9 0.1,256 c 0,0.5 -0.1,1 -0.1,1.4 0,-0.8 0,-1.7 0.1,-2.5"
   id="path255" /><polyline
   class="st13"
   points="283.8,480.7 283.8,480.7 282.2,483.5 282.2,483.6 282.2,483.6 282.2,483.6 283.2,481.8 283.8,480.7     "
   id="polyline257" /><path
   class="st14"
   d="m 0.1,254.6 c 0,0.1 0,0.2 0,0.3 0,0.8 0,1.7 0,2.5 0,-0.5 0,-1 0.1,-1.4 -0.1,-0.5 -0.1,-1 -0.1,-1.4"
   id="path259" /><polyline
   class="st15"
   points="334.6,119.5 334.6,119.5 413.1,256 414.7,256 337.8,122.3 336.2,122.3 334.6,119.5  "
   id="polyline261" /><path
   class="st15"
   d="m 283.5,481.3 -0.3,0.5 -0.2,0.3 0.5,-0.8 M 511.8,256 c -0.4,5 -1.9,9.8 -4.4,14.1 L 396.5,463.6 c -6.1,10.6 -17.4,17.2 -29.6,17.2 0,0 0,0 0,0 h -81.5 l -1.6,2.8 h -1.6 v 0 h 84.7 c 12.2,0 23.5,-6.6 29.6,-17.2 L 507.5,273 c 2.9,-5 4.4,-10.7 4.5,-16.5 0,0.3 0,0.6 0,0.9 -0.1,-0.5 -0.1,-0.9 -0.2,-1.4"
   id="path263" /><polyline
   class="st16"
   points="283.2,481.8 282.2,483.6 282.2,483.6 282.2,483.5 282.2,483.5 283,482.1 283.2,481.8  "
   id="polyline265" /><path
   class="st4"
   d="m 438.9,119.5 v 0 H 336.2 438.9 L 507.4,239 c 1.4,2.4 2.4,4.9 3.2,7.4 -0.7,-2.6 -1.8,-5.1 -3.2,-7.5 L 438.9,119.5"
   id="path267" /><path
   class="st17"
   d="m 414.7,256 h -1.6 l -78.6,136.5 -51,88.7 0.3,-0.5 h 1.6 L 334.5,395.3 414.7,256 M 438.9,119.5 H 336.2 l 1.6,2.8 h 101.1 l 68.6,119.6 c 2.5,4.3 4,9.2 4.4,14.1 0,-0.5 0.1,-1 0.1,-1.4 0,0.6 0,1.3 0,1.9 0.1,-3.4 -0.4,-6.8 -1.3,-10 -0.8,-2.6 -1.8,-5.1 -3.2,-7.4 L 438.9,119.5"
   id="path269" /><polyline
   class="st4"
   points="438.9,119.4 438.9,119.4 438.9,119.5 438.9,119.5 438.9,119.4  "
   id="polyline271" /><polyline
   class="st18"
   points="437.3,119.4 334.6,119.4 334.6,119.5 336.2,119.5 437.3,119.5 437.3,119.4  "
   id="polyline273" /><polyline
   class="st19"
   points="438.9,119.4 438.9,119.4 438.9,119.5 438.9,119.4  "
   id="polyline275" /><polyline
   class="st20"
   points="438.9,119.4 437.3,119.4 437.3,119.5 438.9,119.5 438.9,119.4  "
   id="polyline277" /><path
   class="st21"
   d="m 414.7,256 h -1.6 1.6 M 336.2,119.5 h -1.6 l 1.6,2.8 h 1.6 l -1.6,-2.8"
   id="path279" /><path
   class="st21"
   d="m 285.5,480.7 h -1.6 l -0.3,0.5 -0.5,0.9 -0.8,1.4 h 1.6 l 1.6,-2.8 M 511.9,254.6 c 0,0.5 0,1 -0.1,1.4 0,0.5 0.1,1 0.1,1.4 0,-0.3 0,-0.6 0,-0.9 0.1,-0.7 0,-1.3 0,-1.9"
   id="path281" /><polyline
   class="st22"
   points="283,482.1 282.2,483.5 282.2,483.5 283,482.1  "
   id="polyline283" />
</svg>
